<?xml version="1.0" encoding="UTF-8"?>
<svg width="410" height="404" viewBox="0 0 410 404" fill="none" xmlns="http://www.w3.org/2000/svg">
  <g>
    <path d="M399.6 72.6c-4.6-16.2-18.7-28.7-35.7-30.7-43.2-5-87.2-7.7-131.1-7.7-43.9 0-87.9 2.7-131.1 7.7-17 2-31.1 14.5-35.7 30.7C-7.2 120.2-8.7 170.2 7.2 217.2c15.9 47 47.2 87.2 89.2 113.2 42 26 91.2 39.6 141.6 39.6s99.6-13.6 141.6-39.6c42-26 73.3-66.2 89.2-113.2 15.9-47 14.4-97-7.2-144.6z" fill="#646CFF"/>
    <path d="M205 0c-17.7 0-32 14.3-32 32v192c0 17.7 14.3 32 32 32s32-14.3 32-32V32c0-17.7-14.3-32-32-32z" fill="#FFD600"/>
    <path d="M205 404c-17.7 0-32-14.3-32-32V180c0-17.7 14.3-32 32-32s32 14.3 32 32v192c0 17.7-14.3 32-32 32z" fill="#FFB300"/>
  </g>
</svg> 